<?xml version="1.0" standalone="no"?><!DOCTYPE svg PUBLIC "-//W3C//DTD SVG 1.1//EN" "http://www.w3.org/Graphics/SVG/1.1/DTD/svg11.dtd"><svg t="1571467181019" class="icon" viewBox="0 0 1024 1024" version="1.1" xmlns="http://www.w3.org/2000/svg" p-id="985" xmlns:xlink="http://www.w3.org/1999/xlink" width="200" height="200"><defs><style type="text/css"></style></defs><path d="M512 1024C229.2224 1024 0 794.7776 0 512 0 229.2224 229.2224 0 512 0c282.7776 0 512 229.2224 512 512 0 282.7776-229.2224 512-512 512z m282.709333-709.751467c-9.915733-9.898667-25.053867-8.874667-35.908266 0-84.053333 68.778667-340.5824 264.072533-340.5824 264.072534s-103.748267-44.7488-135.953067-59.255467c-12.8-5.751467-25.992533-9.915733-35.908267 0a25.429333 25.429333 0 0 0 0 35.925333l153.4976 154.453334c5.051733 5.0688 11.7248 7.458133 18.363734 7.338666 6.621867 0.119467 13.294933-2.269867 18.363733-7.338666 0.7168-0.733867 268.526933-269.499733 358.126933-359.253334a25.429333 25.429333 0 0 0 0-35.9424z" fill="#00AF66" p-id="986"></path></svg>